<?xml version="1.0" standalone="no"?>
<!DOCTYPE svg PUBLIC "-//W3C//DTD SVG 20010904//EN"
 "http://www.w3.org/TR/2001/REC-SVG-20010904/DTD/svg10.dtd">
<svg version="1.0" xmlns="http://www.w3.org/2000/svg"
 width="264.000000pt" height="264.000000pt" viewBox="0 0 264.000000 264.000000"
 preserveAspectRatio="xMidYMid meet">
<metadata>
Created by potrace 1.14, written by Peter Selinger 2001-2017
</metadata>
<g transform="translate(0.000000,264.000000) scale(0.100000,-0.100000)"
fill="#000000" stroke="none">
<path d="M1270 2503 c0 -5 -36 -9 -80 -8 -44 0 -80 -3 -80 -8 0 -4 -10 -3 -22
4 -18 10 -20 9 -15 -5 5 -12 3 -15 -6 -9 -17 11 -30 11 -44 0 -7 -5 -13 -7
-13 -3 0 3 -16 0 -35 -8 -20 -9 -42 -13 -50 -9 -11 4 -13 1 -9 -11 4 -12 2
-15 -9 -10 -8 3 -29 -1 -45 -10 -16 -8 -32 -12 -36 -9 -3 4 -6 1 -6 -5 0 -7
-6 -11 -12 -10 -7 2 -12 -2 -11 -9 2 -7 -6 -10 -18 -8 -11 2 -22 -2 -26 -10
-3 -8 -9 -15 -15 -15 -5 0 -6 6 -2 13 5 8 3 8 -9 -2 -9 -7 -14 -18 -11 -23 3
-5 0 -9 -7 -7 -28 3 -40 -1 -33 -13 5 -8 2 -9 -9 -5 -10 3 -17 2 -17 -4 0 -6
-4 -8 -9 -4 -5 3 -12 -4 -16 -15 -4 -11 -11 -18 -16 -15 -5 4 -9 1 -9 -4 0 -6
-7 -11 -15 -11 -8 0 -20 -9 -27 -20 -7 -11 -17 -20 -21 -20 -12 0 -143 -133
-140 -142 2 -5 -2 -8 -8 -8 -5 0 -7 -4 -4 -10 4 -6 -1 -7 -12 -3 -10 3 -15 3
-11 -1 6 -7 -7 -27 -39 -61 -7 -7 -9 -15 -6 -19 4 -3 1 -6 -5 -6 -7 0 -12 -7
-12 -15 0 -8 -6 -14 -12 -12 -7 1 -12 -3 -11 -9 1 -7 -7 -20 -17 -29 -11 -10
-20 -23 -20 -28 0 -5 -8 -16 -17 -24 -10 -8 -12 -11 -5 -8 11 6 11 3 1 -13 -7
-12 -17 -18 -21 -16 -5 3 -8 2 -7 -3 1 -4 0 -11 -1 -15 -1 -5 -3 -14 -4 -20
-1 -7 -7 -12 -12 -11 -6 1 -10 -11 -9 -28 1 -16 -1 -27 -3 -24 -8 7 -32 -67
-26 -77 3 -4 0 -8 -6 -8 -6 0 -8 -4 -5 -10 3 -5 2 -10 -3 -10 -5 0 -9 -6 -10
-12 -4 -30 -10 -63 -12 -63 -1 0 -4 -16 -6 -35 -6 -51 -9 -64 -17 -77 -4 -6
-2 -15 4 -19 8 -5 7 -9 -2 -14 -10 -7 -10 -12 2 -26 9 -11 9 -15 1 -10 -6 4
-12 3 -12 -1 0 -5 6 -15 12 -22 8 -8 8 -11 2 -8 -7 4 -14 -2 -17 -13 -3 -11
-2 -18 3 -15 4 3 11 -2 14 -11 3 -8 2 -12 -4 -9 -5 3 -8 -4 -7 -15 1 -11 6
-20 12 -20 5 0 4 -4 -4 -9 -9 -6 -10 -10 -2 -16 9 -5 9 -10 0 -21 -6 -8 -7
-14 -2 -14 5 0 11 -19 12 -43 2 -23 3 -48 4 -54 0 -7 5 -13 10 -13 5 0 4 -7
-3 -15 -10 -12 -10 -15 0 -15 7 0 10 -6 7 -14 -3 -7 2 -24 10 -37 9 -12 11
-19 4 -15 -10 6 -10 3 -2 -13 29 -56 29 -59 18 -70 -8 -8 -8 -11 0 -11 6 0 14
-7 17 -16 3 -8 2 -12 -4 -9 -17 10 -11 -7 8 -22 10 -8 11 -11 2 -7 -13 7 -13
5 -1 -9 7 -9 10 -17 5 -17 -4 0 3 -12 17 -27 13 -14 18 -23 10 -18 -10 5 -8
-2 4 -23 10 -17 22 -29 27 -26 4 3 5 -1 2 -9 -3 -8 2 -21 10 -30 9 -9 16 -23
16 -32 0 -9 4 -13 10 -10 5 3 10 -1 10 -10 0 -9 4 -13 10 -10 5 3 10 -1 10
-11 0 -9 12 -27 28 -40 15 -13 23 -24 19 -24 -8 0 2 -12 93 -107 33 -35 64
-63 70 -63 5 0 10 -7 10 -16 0 -9 5 -14 12 -12 7 3 25 -8 40 -24 15 -15 32
-28 38 -28 5 0 10 -6 10 -12 0 -9 4 -8 10 2 8 13 10 12 10 -3 0 -11 9 -21 20
-24 11 -3 20 -8 20 -12 0 -9 71 -37 83 -33 5 1 6 -1 4 -5 -3 -5 6 -13 19 -20
18 -8 22 -8 18 0 -5 8 -2 7 7 0 7 -7 21 -13 32 -13 12 0 16 -4 11 -12 -4 -7
-4 -10 1 -6 4 4 23 1 41 -7 36 -15 37 -15 55 -15 5 0 7 -6 3 -13 -5 -8 -2 -8
9 2 13 10 17 10 17 1 0 -7 7 -10 15 -7 8 4 17 2 20 -4 4 -5 11 -7 16 -4 5 4 9
2 9 -2 0 -5 27 -9 60 -8 33 0 60 -4 60 -8 0 -5 6 -5 12 -1 18 11 48 12 48 2 0
-5 5 -6 11 -2 18 10 109 10 109 0 0 -6 5 -5 11 1 7 7 21 8 40 3 16 -5 29 -6
29 -2 0 4 19 6 42 5 24 0 49 4 57 10 12 10 13 9 6 -3 -7 -12 -6 -13 6 -4 13
11 28 13 71 15 10 0 20 5 23 10 4 5 11 7 16 4 5 -4 9 0 9 7 0 9 3 9 10 -2 7
-11 10 -11 10 -2 0 7 4 11 8 8 5 -3 22 3 39 14 17 10 43 17 57 16 21 -3 24 -1
15 10 -8 10 -6 12 10 9 12 -2 21 1 21 6 0 6 4 8 9 4 5 -3 16 1 24 9 8 8 22 16
32 18 10 2 30 13 43 25 13 13 28 20 33 17 5 -3 9 0 9 6 0 6 5 8 10 5 6 -3 13
1 16 9 3 9 12 16 20 16 8 0 14 4 14 10 0 5 12 13 26 16 16 4 23 12 20 20 -3 8
1 14 10 14 8 0 17 7 20 15 4 8 10 13 15 10 4 -3 13 4 19 15 6 11 18 20 26 20
8 0 12 5 9 10 -3 6 1 13 9 16 9 3 16 13 16 21 0 8 5 11 10 8 6 -3 10 -2 10 4
0 6 10 20 23 32 12 12 15 18 7 14 -8 -4 -1 5 16 21 18 16 29 36 26 44 -3 8 -1
12 3 8 10 -9 35 10 35 26 0 6 -5 4 -10 -4 -5 -8 -10 -10 -10 -4 0 15 25 36 33
27 4 -3 7 3 7 15 0 12 5 22 11 22 6 0 8 7 5 16 -3 8 -2 12 4 9 6 -3 10 1 10 9
0 8 7 22 16 30 8 9 12 16 8 16 -3 0 -1 7 6 15 6 8 9 18 6 24 -3 5 1 12 10 15
9 4 14 9 10 13 -3 3 1 17 9 30 9 13 16 39 17 58 1 20 5 32 11 28 6 -4 8 0 4
10 -3 9 -2 19 3 22 5 3 7 14 5 25 -2 11 0 20 6 20 5 0 8 3 8 8 -1 4 -1 24 0
45 1 28 4 36 14 31 8 -5 8 -2 -2 9 -10 13 -11 20 -2 31 10 11 8 17 -6 26 -16
10 -16 11 0 6 18 -6 24 9 7 19 -6 4 -8 11 -4 16 11 19 11 59 0 59 -7 0 -7 3
-1 8 15 11 18 55 2 46 -9 -5 -9 -4 0 6 8 9 9 19 3 31 -7 12 -6 20 0 24 8 5 7
12 -1 22 -10 11 -10 16 0 23 11 6 11 9 0 13 -12 5 -12 6 0 6 10 1 11 4 3 14
-6 7 -12 30 -14 50 -1 20 -5 37 -9 37 -12 0 -18 40 -6 40 7 1 6 6 -3 13 -9 7
-16 21 -16 32 0 12 -6 19 -14 17 -11 -3 -12 -1 -3 8 8 9 6 20 -9 46 -11 19
-16 34 -11 34 4 0 1 5 -7 10 -8 5 -16 14 -16 20 -1 5 -2 11 -4 13 -1 1 -3 10
-5 21 -2 10 -9 24 -16 30 -9 8 -10 8 -4 -3 6 -10 4 -12 -4 -7 -9 6 -9 12 1 24
7 10 9 14 4 10 -11 -9 -35 14 -29 29 3 7 -2 16 -11 19 -9 3 -16 14 -16 24 0
10 -7 20 -15 24 -9 3 -12 12 -8 22 4 11 3 15 -5 10 -12 -7 -35 27 -25 38 3 3
-1 6 -10 6 -9 0 -17 5 -17 10 0 6 -11 20 -25 32 -13 11 -22 25 -20 29 3 4 -3
10 -14 14 -10 3 -21 15 -24 26 -3 11 -15 23 -26 26 -11 3 -18 9 -15 14 3 5 2
9 -3 9 -14 0 -63 47 -56 54 6 5 -13 9 -20 4 -1 -2 -17 11 -34 29 -20 21 -33
28 -37 20 -2 -7 -5 -4 -5 5 -1 10 -12 20 -26 24 -14 3 -25 11 -25 16 0 6 -7 8
-15 4 -10 -3 -15 1 -15 12 0 14 -2 14 -9 3 -7 -11 -10 -9 -16 8 -5 18 -9 20
-21 10 -11 -9 -14 -9 -14 0 0 7 -4 9 -10 6 -5 -3 -10 -2 -10 4 0 12 -57 41
-82 41 -10 0 -18 4 -18 9 0 6 -9 8 -20 6 -11 -2 -20 0 -20 6 0 5 -5 9 -11 9
-5 0 -7 -5 -3 -12 4 -7 -6 -3 -22 8 -16 11 -39 19 -51 18 -13 -1 -23 3 -23 9
0 5 -8 3 -17 -4 -9 -8 -14 -9 -10 -3 6 11 -9 13 -149 18 -39 2 -76 6 -82 10
-7 4 -12 3 -12 -1z"/>
</g>
</svg>
